<svg width="40" height="40" viewBox="0 0 40 40" fill="none" xmlns="http://www.w3.org/2000/svg">
<path d="M37.3171 10.2107C35.5287 7.06954 33.1028 4.58269 30.0387 2.74958C26.9742 0.91637 23.6287 0 19.9998 0C16.3714 0 13.0248 0.91665 9.96092 2.74958C6.89661 4.5826 4.47077 7.06954 2.68232 10.2107C0.894137 13.3517 0 16.7818 0 20.5008C0 24.9681 1.27147 28.9852 3.81506 32.5532C6.35838 36.1214 9.64396 38.5905 13.6715 39.9607C14.1404 40.0499 14.4874 39.9871 14.7131 39.7741C14.9388 39.5607 15.0516 39.2935 15.0516 38.9735C15.0516 38.9202 15.0471 38.4399 15.0384 37.5321C15.0295 36.6243 15.0253 35.8324 15.0253 35.1567L14.4263 35.2629C14.0444 35.3346 13.5626 35.365 12.981 35.3564C12.3996 35.3481 11.7961 35.2856 11.1712 35.1695C10.546 35.0544 9.96456 34.7875 9.42633 34.3692C8.88837 33.951 8.50647 33.4036 8.28073 32.7278L8.02032 32.1135C7.84675 31.7046 7.57348 31.2503 7.20016 30.7523C6.82683 30.2539 6.44931 29.916 6.06741 29.738L5.88508 29.6042C5.76359 29.5153 5.65086 29.4081 5.5466 29.2836C5.44244 29.1592 5.36445 29.0347 5.31237 28.9099C5.2602 28.7851 5.30343 28.6827 5.44253 28.6024C5.58163 28.5221 5.833 28.4831 6.19775 28.4831L6.71838 28.5629C7.06562 28.6342 7.49513 28.8473 8.00746 29.2034C8.51952 29.5593 8.94045 30.0219 9.27036 30.5911C9.66986 31.3209 10.1512 31.8771 10.7157 32.2598C11.2797 32.6424 11.8484 32.8335 12.4212 32.8335C12.994 32.8335 13.4888 32.789 13.9056 32.7004C14.322 32.6114 14.7126 32.4776 15.0774 32.2998C15.2336 31.1069 15.659 30.1906 16.3532 29.55C15.3638 29.4434 14.4742 29.2829 13.684 29.0694C12.8943 28.8557 12.0783 28.5088 11.2364 28.0279C10.3941 27.5476 9.69531 26.9512 9.13993 26.2396C8.58446 25.5277 8.12859 24.5931 7.77296 23.4367C7.41715 22.2797 7.23919 20.9451 7.23919 19.4325C7.23919 17.2788 7.9251 15.4461 9.29663 13.9333C8.65414 12.3141 8.7148 10.4989 9.47878 8.48799C9.98226 8.32764 10.7289 8.44798 11.7184 8.84824C12.708 9.24869 13.4326 9.59173 13.8928 9.87615C14.3531 10.1605 14.7218 10.4014 14.9997 10.5968C16.6145 10.1343 18.281 9.90298 19.9996 9.90298C21.7182 9.90298 23.3851 10.1343 25.0001 10.5968L25.9896 9.95647C26.6663 9.52918 27.4654 9.13761 28.385 8.78167C29.3051 8.42591 30.0087 8.32792 30.495 8.48827C31.276 10.4993 31.3456 12.3144 30.7029 13.9336C32.0744 15.4464 32.7605 17.2796 32.7605 19.4328C32.7605 20.9454 32.5819 22.2842 32.2267 23.45C31.871 24.616 31.4112 25.5497 30.8471 26.253C30.2824 26.9562 29.5792 27.5479 28.7373 28.0282C27.8953 28.5087 27.0789 28.8556 26.2892 29.0693C25.4992 29.2831 24.6096 29.4437 23.6201 29.5505C24.5226 30.351 24.9739 31.6146 24.9739 33.3408V38.9728C24.9739 39.2927 25.0824 39.5599 25.2997 39.7733C25.5167 39.9864 25.8594 40.0491 26.3282 39.9598C30.3563 38.5898 33.6419 36.1206 36.1851 32.5524C38.7281 28.9844 40 24.9673 40 20.5C39.9991 16.7815 39.1045 13.3517 37.3171 10.2107Z" fill="#1F3304" fill-opacity="0.5"/>
</svg>
