<svg width="40" height="40" viewBox="0 0 40 40" fill="none" xmlns="http://www.w3.org/2000/svg">
<path fill-rule="evenodd" clip-rule="evenodd" d="M20 40C31.0457 40 40 31.0457 40 20C40 8.95431 31.0457 0 20 0C8.95431 0 0 8.95431 0 20C0 31.0457 8.95431 40 20 40ZM14.4703 14.6404H10.326V27.9991H14.4703V14.6404ZM14.804 10.4105C14.804 9.08082 13.733 8 12.4059 8C11.071 8 10 9.08082 10 10.4105C10 11.7401 11.071 12.8132 12.4059 12.8209C13.7252 12.8209 14.804 11.7401 14.804 10.4105ZM21.0517 14.6414H17.0781V28H21.2224V21.3907C21.2224 19.6489 21.5484 17.9616 23.7059 17.9616C25.8324 17.9616 25.8557 19.9599 25.8557 21.5073V28H30V20.6753C30 17.0829 29.2239 14.3148 25.0253 14.3148C23.0074 14.3148 21.657 15.4189 21.106 16.4687H21.0517V14.6414Z" fill="#1F3304"/>
</svg>
